<?xml version="1.0" standalone="no"?>
<!DOCTYPE svg PUBLIC "-//W3C//DTD SVG 20010904//EN"
 "http://www.w3.org/TR/2001/REC-SVG-20010904/DTD/svg10.dtd">
<svg version="1.0" xmlns="http://www.w3.org/2000/svg"
 width="856.000000pt" height="856.000000pt" viewBox="0 0 856.000000 856.000000"
 preserveAspectRatio="xMidYMid meet">
<metadata>
Created by potrace 1.11, written by Peter Selinger 2001-2013
</metadata>
<g transform="translate(0.000000,856.000000) scale(0.100000,-0.100000)"
fill="#000000" stroke="none">
<path d="M3543 4933 c-164 -175 -372 -396 -462 -493 -90 -96 -241 -256 -335
-355 -95 -99 -196 -207 -226 -240 -30 -33 -113 -121 -185 -195 -158 -164 -295
-317 -295 -329 0 -5 150 -12 333 -16 421 -9 2256 -2 2280 9 10 5 233 234 494
510 262 275 592 623 733 771 142 149 275 290 297 315 21 25 79 86 128 135 50
50 109 113 132 141 l42 51 -226 6 c-124 4 -718 7 -1319 7 l-1092 0 -299 -317z
m1092 247 c10 -16 3 -23 -496 -545 -52 -55 -133 -140 -180 -190 -46 -49 -127
-134 -180 -190 -53 -55 -134 -140 -180 -190 -46 -49 -127 -135 -180 -190 -53
-55 -111 -116 -129 -135 -18 -19 -102 -108 -187 -197 l-155 -163 -380 0 c-322
0 -379 2 -376 14 3 13 191 213 712 760 100 104 192 201 206 216 14 15 108 114
210 221 102 107 264 276 359 377 96 101 185 192 199 202 23 19 43 20 388 20
236 0 365 -4 369 -10z m840 -12 c0 -9 -45 -63 -100 -120 -55 -57 -138 -144
-185 -193 -46 -50 -127 -135 -180 -190 -52 -56 -133 -141 -180 -190 -46 -50
-130 -137 -185 -195 -55 -58 -140 -148 -190 -201 -49 -52 -173 -182 -275 -289
-102 -107 -219 -231 -260 -274 -41 -44 -88 -92 -104 -108 l-29 -28 -378 0
c-269 0 -379 3 -379 11 0 6 42 54 93 108 50 53 180 188 287 301 206 217 353
371 510 535 96 100 257 270 295 310 192 205 510 535 518 539 7 2 176 4 377 3
336 -2 365 -3 365 -19z m840 0 c0 -9 -34 -52 -75 -95 -41 -43 -112 -118 -159
-168 -101 -106 -229 -242 -361 -380 -52 -55 -169 -179 -260 -275 -91 -96 -253
-267 -360 -380 -108 -113 -229 -241 -270 -284 -41 -44 -102 -108 -136 -143
l-60 -63 -377 0 c-206 0 -378 4 -381 8 -6 10 1 17 539 581 61 64 144 152 185
196 41 44 126 132 189 197 63 65 117 122 120 127 3 5 89 96 191 202 102 107
236 248 299 314 62 66 129 135 147 153 l34 32 367 -2 c337 -3 368 -4 368 -20z"/>
<path d="M4757 5097 c-12 -4 -47 -35 -79 -68 -31 -33 -91 -97 -135 -142 -43
-45 -208 -219 -368 -387 -159 -168 -335 -352 -390 -410 -56 -58 -152 -159
-215 -225 -111 -116 -265 -278 -342 -358 -21 -22 -38 -43 -38 -48 0 -5 129 -9
289 -9 l288 0 49 53 c44 48 259 275 480 507 49 52 182 192 294 310 112 118
267 280 344 360 230 237 381 401 381 412 0 12 -524 17 -558 5z"/>
<path d="M5524 5028 c-38 -40 -159 -167 -269 -282 -110 -115 -213 -224 -230
-241 -16 -17 -73 -76 -125 -131 -110 -114 -224 -234 -470 -494 -96 -102 -223
-235 -282 -296 -60 -60 -108 -114 -108 -120 0 -5 110 -9 282 -8 l282 2 86 89
c47 49 204 215 350 369 295 311 383 403 745 779 323 334 375 390 375 398 0 4
-127 7 -283 7 l-284 0 -69 -72z m-864 -1402 c0 -3 -4 -8 -10 -11 -5 -3 -10 -1
-10 4 0 6 5 11 10 11 6 0 10 -2 10 -4z"/>
<path d="M6679 5163 c-64 -68 -278 -313 -318 -366 -13 -16 15 -46 290 -323
235 -237 300 -307 289 -315 -9 -5 -229 -9 -515 -9 l-500 0 -122 -131 c-68 -72
-123 -137 -123 -144 0 -20 170 -25 909 -25 l696 -1 195 -203 195 -204 427 -1
c235 -1 429 3 432 7 3 5 -397 410 -888 901 l-892 892 -75 -78z"/>
<path d="M117 5093 c-32 -2 -57 -8 -55 -13 2 -5 147 -161 324 -347 176 -186
392 -415 480 -509 265 -283 829 -878 849 -894 17 -14 28 -4 162 135 79 83 170
180 203 216 l60 66 -63 74 c-35 41 -128 142 -207 224 -79 83 -185 196 -234
251 -50 56 -211 229 -357 385 -147 156 -293 314 -325 352 l-58 67 -360 -2
c-199 -1 -387 -3 -419 -5z"/>
</g>
</svg>
